<svg width="32" height="32" viewBox="0 0 32 32" xmlns="http://www.w3.org/2000/svg">
  <rect width="32" height="32" fill="#14100F"/>
  <path d="M13.5 3.5H18.5V10.2C18.5 10.8 18.7 11.3 19.1 11.8L20.6 13.6C21.2 14.3 21.5 15.2 21.5 16.1V26.5C21.5 27.6 20.6 28.5 19.5 28.5H12.5C11.4 28.5 10.5 27.6 10.5 26.5V16.1C10.5 15.2 10.8 14.3 11.4 13.6L12.9 11.8C13.3 11.3 13.5 10.8 13.5 10.2V3.5Z" fill="#F4F2EB"/>
  <rect x="13.5" y="3.5" width="5" height="2.2" fill="#C7C64B"/>
  <rect x="11" y="17.5" width="10" height="6.5" fill="#4A0F0E"/>
</svg>
